<?xml version="1.0" standalone="no"?>
<!DOCTYPE svg PUBLIC "-//W3C//DTD SVG 20010904//EN"
 "http://www.w3.org/TR/2001/REC-SVG-20010904/DTD/svg10.dtd">
<svg version="1.0" xmlns="http://www.w3.org/2000/svg"
 width="700.000000pt" height="700.000000pt" viewBox="0 0 700.000000 700.000000"
 preserveAspectRatio="xMidYMid meet">
<metadata>
Created by potrace 1.14, written by Peter Selinger 2001-2017
</metadata>
<g transform="translate(0.000000,700.000000) scale(0.100000,-0.100000)"
fill="#000000" stroke="none">
<path d="M289 6643 c-6 -172 -3 -516 5 -548 5 -22 17 -52 28 -67 10 -14 216
-226 457 -470 241 -244 528 -534 637 -645 110 -110 452 -457 762 -771 309
-313 573 -584 587 -602 23 -31 23 -34 9 -63 -9 -16 -210 -226 -448 -465 -237
-240 -661 -668 -942 -951 -939 -947 -1065 -1076 -1081 -1106 -14 -25 -17 -70
-18 -285 -1 -268 3 -321 22 -327 15 -5 2829 2817 2878 2887 13 19 27 53 31 75
11 66 10 334 -1 391 -16 79 65 -8 -985 1054 -323 327 -747 757 -943 955 -195
198 -491 498 -659 668 -167 169 -311 307 -321 307 -13 0 -17 -9 -18 -37z"/>
<path d="M3775 6670 c-4 -6 -7 -135 -8 -288 0 -261 1 -280 20 -322 15 -32 111
-136 333 -360 329 -332 1340 -1354 1818 -1838 156 -158 295 -304 309 -324 37
-55 93 10 -515 -604 -1487 -1499 -1927 -1946 -1945 -1974 -19 -30 -20 -48 -20
-315 0 -156 4 -288 7 -294 4 -6 12 -11 18 -11 7 0 273 263 592 584 320 321
963 968 1430 1437 665 668 853 863 869 898 17 40 21 70 22 214 3 202 -6 257
-48 312 -17 22 -147 157 -288 300 -142 143 -349 353 -461 467 -249 253 -1219
1235 -1728 1750 -206 208 -380 378 -387 378 -6 0 -15 -5 -18 -10z"/>
</g>
</svg>
