<?xml version="1.0" encoding="UTF-8" standalone="no"?>
<svg
   width="123"
   height="55"
   viewBox="0 0 0.00123 0.00055"
   version="1.1"
   id="svg12094"
   xmlns="http://www.w3.org/2000/svg">
  <defs
     id="defs12091" />
  <g
     id="layer1">
    <g
       aria-label="E&gt;&gt;ev"
       id="text12723"
       style="font-size:0.00048px;line-height:1.25;font-family:NanumGothicCoding;-inkscape-font-specification:NanumGothicCoding;stroke-width:1e-05">
      <path
         d="m 5.6552429e-5,4.4354199e-4 q -9.6e-6,0 -1.1519999e-5,-1.92e-6 -1.92e-6,-1.44e-6 -1.92e-6,-1.2e-5 V 1.23382e-4 q 0,-9.6e-6 1.44e-6,-1.104e-5 1.919999e-6,-1.92e-6 1.1039999e-5,-1.92e-6 H 2.1063243e-4 q 5.28e-6,0 6.24e-6,1.92e-6 9.6e-7,1.44e-6 9.6e-7,5.76e-6 v 3.456e-5 q 0,4.8e-6 -1.44e-6,6.72e-6 -1.44e-6,1.44e-6 -5.76e-6,1.44e-6 H 9.5912428e-5 v 8.687999e-5 H 2.0439243e-4 q 7.2e-6,0 7.2e-6,7.68e-6 v 3.456e-5 q 0,8.16e-6 -7.2e-6,8.16e-6 H 9.5912428e-5 v 9.504e-5 H 2.1639243e-4 q 6.72e-6,0 6.72e-6,8.16e-6 v 3.456e-5 q 0,7.68e-6 -6.72e-6,7.68e-6 z"
         id="path9" />
      <path
         d="m 2.7687151e-4,5.0066199e-4 q -6.24e-6,6.72e-6 -7.68e-6,6.24e-6 -1.44e-6,-4.8e-7 -1.44e-6,-1.008e-5 v -4.56e-5 q 0,-4.8e-6 0,-7.68e-6 4.8e-7,-2.88e-6 9.6e-7,-4.8e-6 9.6e-7,-1.92e-6 2.88e-6,-4.32e-6 1.92e-6,-1.92e-6 4.8e-6,-5.28e-6 l 1.3871999e-4,-1.4784e-4 q 4.32e-6,-4.8e-6 4.32e-6,-7.68e-6 4.8e-7,-2.88e-6 -3.36e-6,-6.72e-6 L 2.7639151e-4,1.20982e-4 q -3.36e-6,-3.36e-6 -5.28e-6,-5.28e-6 -1.44e-6,-2.4e-6 -2.4e-6,-4.32e-6 -4.8e-7,-2.4e-6 -9.6e-7,-4.8e-6 0,-2.88e-6 0,-7.680002e-6 V 5.3301999e-5 q 0,-9.6e-6 1.44e-6,-1.008e-5 1.44e-6,-4.8e-7 7.68e-6,6.24e-6 L 4.664715e-4,2.4674199e-4 q 4.8e-6,4.8e-6 5.76e-6,7.2e-6 9.6e-7,2.4e-6 9.6e-7,1.008e-5 v 2.208e-5 q 0,7.68e-6 -9.6e-7,1.008e-5 -9.6e-7,2.4e-6 -5.76e-6,7.2e-6 z"
         id="path11" />
      <path
         d="m 5.1687058e-4,5.0066199e-4 q -6.24e-6,6.72e-6 -7.68e-6,6.24e-6 -1.44e-6,-4.8e-7 -1.44e-6,-1.008e-5 v -4.56e-5 q 0,-4.8e-6 0,-7.68e-6 4.8e-7,-2.88e-6 9.6e-7,-4.8e-6 9.6e-7,-1.92e-6 2.88e-6,-4.32e-6 1.92e-6,-1.92e-6 4.8e-6,-5.28e-6 l 1.3872e-4,-1.4784e-4 q 4.32e-6,-4.8e-6 4.32e-6,-7.68e-6 4.8e-7,-2.88e-6 -3.36e-6,-6.72e-6 L 5.1639058e-4,1.20982e-4 q -3.36e-6,-3.36e-6 -5.28e-6,-5.28e-6 -1.44e-6,-2.4e-6 -2.4e-6,-4.32e-6 -4.8e-7,-2.4e-6 -9.6e-7,-4.8e-6 0,-2.88e-6 0,-7.680002e-6 V 5.3301999e-5 q 0,-9.6e-6 1.44e-6,-1.008e-5 1.44e-6,-4.8e-7 7.68e-6,6.24e-6 l 1.896e-4,1.97279991e-4 q 4.8e-6,4.8e-6 5.76e-6,7.2e-6 9.6e-7,2.4e-6 9.6e-7,1.008e-5 v 2.208e-5 q 0,7.68e-6 -9.6e-7,1.008e-5 -9.6e-7,2.4e-6 -5.76e-6,7.2e-6 z"
         id="path13" />
      <path
         d="m 9.4598964e-4,3.3458199e-4 q 0,3.84e-6 -1.92e-6,5.76e-6 -1.44e-6,1.44e-6 -4.32e-6,1.44e-6 H 8.0822965e-4 q 4.8e-7,2.544e-5 1.296e-5,4.368e-5 1.295999e-5,1.776e-5 4.127999e-5,1.776e-5 1.728e-5,0 3.024e-5,-3.84e-6 1.344e-5,-4.32e-6 2.736e-5,-1.44e-5 3.84e-6,-1.92e-6 4.32e-6,4.8e-7 9.6e-7,2.4e-6 9.6e-7,5.76e-6 v 3.408e-5 q 0,4.32e-6 -1.44e-6,6.24e-6 -1.44e-6,2.4e-6 -4.8e-6,4.8e-6 -1.248e-5,6.72e-6 -2.544e-5,1.056e-5 -1.248e-5,3.84e-6 -3.12e-5,3.84e-6 -5.471999e-5,0 -8.159999e-5,-3.504e-5 -2.688e-5,-3.504e-5 -2.688e-5,-9.264e-5 0,-2.448e-5 5.76e-6,-4.752e-5 5.76e-6,-2.352e-5 1.776e-5,-4.224e-5 1.248e-5,-1.872e-5 3.12e-5,-3.071999e-5 1.871999e-5,-1.2e-5 4.319999e-5,-1.2e-5 2.592e-5,0 4.368e-5,1.104e-5 1.824e-5,1.103999e-5 2.928e-5,2.927999e-5 1.152e-5,1.776e-5 1.632e-5,4.08e-5 5.28e-6,2.304e-5 5.28e-6,4.992e-5 0,3.36e-6 -4.8e-7,7.68e-6 0,3.84e-6 0,5.28e-6 z m -9.504e-5,-9.792e-5 q -1.152e-5,0 -2.064e-5,6.72e-6 -8.63999e-6,6.24e-6 -1.391999e-5,1.728e-5 -4.8e-6,1.056e-5 -6.72e-6,1.968e-5 -1.44e-6,8.64e-6 -1.44e-6,1.392e-5 h 8.591999e-5 q 0,-5.28e-6 -1.92e-6,-1.392e-5 -1.44e-6,-9.12e-6 -6.72e-6,-1.968e-5 -4.8e-6,-1.104e-5 -1.392e-5,-1.728e-5 -9.12e-6,-6.72e-6 -2.064e-5,-6.72e-6 z"
         id="path15" />
      <path
         d="m 0.00111063,4.4354199e-4 h -4.128e-5 q -2.88e-6,0 -4.32e-6,-9.6e-7 -9.6e-7,-4.8e-7 -1.92e-6,-3.36e-6 L 9.8774874e-4,2.02102e-4 q -9.6e-7,-2.4e-6 0,-3.84e-6 9.6e-7,-1.44e-6 6.24e-6,-1.44e-6 H 0.00103335 q 2.4e-6,0 3.84e-6,9.6e-7 1.44e-6,4.8e-7 2.4e-6,2.88e-6 l 3.6e-5,1.2143999e-4 1.44e-5,5.424e-5 1.392e-5,-5.424e-5 3.6e-5,-1.2143999e-4 q 9.6e-7,-2.4e-6 2.4e-6,-2.88e-6 1.92e-6,-9.6e-7 4.32e-6,-9.6e-7 h 3.984e-5 q 5.28e-6,0 6.24e-6,1.44e-6 9.6e-7,1.44e-6 0,3.84e-6 l -7.632e-5,2.3711999e-4 q -9.6e-7,2.88e-6 -1.92e-6,3.36e-6 -9.6e-7,9.6e-7 -3.84e-6,9.6e-7 z"
         id="path17" />
    </g>
  </g>
</svg>
